<svg xmlns="http://www.w3.org/2000/svg" xmlns:xlink="http://www.w3.org/1999/xlink" xml:space="preserve" version="1.0" viewBox="0 0 477.9 494.3">
  <defs>
    <path id="a" fill="#d1b948" stroke="#806600" stroke-width="3.1" d="M208.5 170.4s-10.7-.6-15-3.5c-4.7-3.2-9.6-14-9.6-14s-12 1.7-17.4.2c-5.7-1.6-13.8-9-13.8-9 5.4-.7 9.5-1.4 14.9-5.8 0 0-10.6-1-16.5-3.8a79.3 79.3 0 0 1-13.7-10c4.9-1 10.2-.7 14-5.7 0 0-10.3-.3-15-2.4-4.6-2-12-9.4-12-9.4 5.7-.3 11.1-1.2 14.8-6 0 0-10.4 0-14.8-2.2A79.3 79.3 0 0 1 109 87c6-.2 11.8-.5 16.2-4l-3.2-7.3c-4-9-12.3-6.2-17.8-8.9A17.3 17.3 0 0 1 95.5 54c-.5-6.4 2.6-16 16-13.5-6.6-11.2.4-18.8 7.5-21.6 6.8-2.8 12.8-1.7 17.3 10.5 0 0 6.2-5.2 9.5-5.8 4.7-1 10 1 11.6 5.8.7 2 .9 6-.3 8.4-1.8 3.7-5.9 6.2-7.2 11.8-1.5 6.3 3.8 17.6 3.8 17.6s25.4 23 37.1 35.6c6.2 6.7 17.5 21 17.5 21l.6-.3 25.5 1 1.8 46.5-27.7-.5z"/>
    <path id="b" fill="#e94545" stroke="#a00" stroke-width="4" d="M154.5 25.3c.9 4.6-1 7.9-4.8 9-1.9.5-4-.2-6.4-2.9 1.2-7.6.7-10.6-4.1-17.3 12.1 3.3 12.5 9.2 15.3 11.2zm-33.8-5c2.6 4 2.2 7.7-.9 10.5-1.5 1.3-3.7 1.6-6.8.2-1.9-7.5-3.5-10-10.4-14.1 12.2-2.4 14.8 2.8 18.1 3.4zm-19.4 25.2c3.7 2.4 4.8 6 3.2 10-.9 2-2.8 3.2-6 3.3-4.6-6-7-7.7-14.8-8.3 10-7.7 14.3-4 17.6-5z"/>
    <path id="c" fill="#d1b948" stroke="#806600" stroke-width="3.1" d="m106.6 336.1 8.8 21s14.3-1.8 21.3-4c9.6-2.9 24.5-11.8 24.5-11.8 6.7-3.6-8.3-14.4-13.6-20.2-4-4.4-6.8-10.2-6.8-10.2-4-6.5 10-16.6 20.3-23.3 13-8.7 28-16.9 41.7-19.4 23.3-4.2 78.5-10.9 78.5-10.9l5.6 20.6-12.8 30-19 13.4c3.6 4.2-27.7 1.8-51.8 1-7.7-.3 1.5 22.7 1.5 22.7s6 4.6 8.3 8.2c2.3 3.6 3.5 7.7 1.6 11.4-1.8 3.7-7.3 5.5-11.9 6.4-4.5 1-10.8-1.9-10.8-1.9 2 3.4 3.7 6.8 3.3 10.5-.7 6.4-14 14.3-14 14.3s2.6-6.4 1.8-9.4c-1.1-3.7-5-8-5-8s-.5 5.2-1.6 7.8c-2.8 7-18.1 14-18.1 14s3.3-7.2 3.3-11c0-4-4.1-7.5-4.1-7.5s-1.4 6.1-4.3 9.8c-3.6 4.5-14.3 9.4-14.3 9.4s2.3-6 2.5-9.2c.2-3-1.3-9-1.3-9s-6.2 10-10 13.3c-4.5 4.1-14.1 7-14.1 7s5.7-10.2 3.8-15c-1.8-4.6-14.4-7.4-14.4-7.4S92 385 83.4 386.5c-4.3.7-10 1.3-13-1.9-4-4.4-4.4-8.2-2.3-13.8 1-2.7 8.1-6.9 8.1-6.9s-5.3-3-6.8-5c-2.7-3.7-2.7-8.1-.7-12.2 2.1-4.3 6.2-5.8 11-5.8 3.5 0 9.4 4.3 9.4 4.3s1.6-11.4 6-13.5c4.4-2 11.5 4.4 11.5 4.4z"/>
    <path id="d" fill="#e94545" stroke="#a00" stroke-width="4" d="M69.3 343.1c4.4 1 6.6 4.2 6.4 8.4-.1 2-1.5 4-4.6 5.1-6.3-4.2-9.2-4.9-16.6-2.9 6.8-10.6 12-8.6 14.8-10.6zm-.7 32.1c4.4-1.1 7.8.6 9.5 4.5.9 1.9.6 4.2-1.7 6.6-7.5-.8-10.3 0-16 5.2 1.1-12.6 6.7-13.3 8.2-16.3zm30.9-46.1c2.6 3.7 2.3 7.5-.7 10.5-1.4 1.5-3.7 2-6.8.9-2-7.4-3.7-9.7-10.6-13.2 12-3.4 14.8 1.5 18.1 1.8z"/>
    <path id="e" fill="#d1b948" stroke="#806600" stroke-width="3.1" d="M291.6 299.8s-12.7 7.4-20.8 3.9a13.4 13.4 0 0 1-7.7-8.5c-.9-3.5.7-7.6 2.8-10.7 1.4-1.9 11.4-8 11.4-8s-2.7-9.2-6-14.4c-4.7-7.8-28-15.9-28-15.9 9.5-3 20.5-3.3 31.7-.6l19 23-2.4 31.2z"/>
    <path id="f" fill="none" stroke="#806600" stroke-width="3.1" d="M293 451.5s4.1-1 5.7 0a94 94 0 0 1 11 8.8s1.7-7.8-.2-14c-1-3.6-7.3-8.7-7.3-8.7s8-2.2 11.7.5a44 44 0 0 1 8.1 11.7s1.7-10 .6-16.2c-1-4.8-9-11.5-9-11.5s6.6-1.3 9.5 0c4.9 2.3 10.4 12.5 10.4 12.5s4.2-13.4 1-20.8c-1.4-3.5-8.8-6.8-8.8-6.8s10.2-2.7 14 0c4.7 3.3 6.9 11.5 6.9 11.5s4.8-10 3-17.3c-1-4.4-8.3-11-8.3-11s5.7-4.6 7.3-7.7c1.5-2.7 3.3-6.1 2.1-9-1.2-2.8-5-4.1-8.1-4.6-3.8-.5-11.1 2.5-11.1 2.5l-4.6-4a46 46 0 0 1-13.6-29.7c-1.2-11.8 8.3-33.9 8.3-33.9a76 76 0 0 0 11.3 22.4 35.4 35.4 0 0 0 18.8 11.5c9.2 2 13.9 2.4 22.3-1.8 7.6-3.7 15.8-10 17.7-18.2 7.6-32.6-2.2-85.2-1.7-81.2 0 0 5.3-6.7 6.9-11.4 1.9-5.6 3.4-19.5 3.4-19.5 1.3-4.6 5.3-8.8 9.7-10.8 2.8-1.3 6.3-1.1 9.2 0A38.6 38.6 0 0 1 430 205s-.5-12.1-4-16.6a22.2 22.2 0 0 0-15.4-8c-8.9-.6-17.6 2.9-17.6 2.9s9.6-10.5 14.1-20.8a83.9 83.9 0 0 0 4.2-23.4 53 53 0 0 0-12.9-32.4A87 87 0 0 0 372.2 88s6 9.9 10 19.7c2.7 6.8 3.7 15.5 3.7 15.5s-5.6-5.7-10.5-9.7c-6.9-5.6-20.2-6-20.2-6s11.6 9.2 15.4 19.9a33 33 0 0 1 1 15.2c-1 8-5.3 19.7-7.2 27.5-2.6 11-5.8 17.5-5.2 28.8.6 11.3 8.5 33 8.5 33s-13 1.7-17.8 4.9c-6.9 4.5-8 18.8-8 18.8s7.5-7.6 12.2-8.7c3.6-.8 10.3 3.4 10.3 3.4s-13.3 5.4-17 11.1c-3.7 5.5-3.5 16.9-3.5 16.9s4.8-7 9.4-9.2c3.8-1.9 12.8 0 12.8 0s-12.3 7.5-15.4 13.6c-2.8 5.7-1.7 18.8-1.7 18.8s5.6-9.2 10.1-11.6c3.3-1.7 7.5-2.4 11.1-1.6 3.4.8 6 1.8 7.9 4.7 3.3 5.3 2.7 12.2 0 18.8-2 4.8-3.7 9-8.6 11a24 24 0 0 1-19.6 0c-7.3-3.6-8-7-11.1-14.4-6.1-14.4-5.4-34.2-11.1-48.7-4.7-12-16-20-19.7-32.5-3.8-12.8.2-26.8-1.7-40.1-1.1-8.2-5.7-20.8-6.8-29-1-6.5 0-14.5 0-14.5l-57.5-3-31 27.4s-11.8 3.2-17.9 3.5c-14.7 1-31.7-3.5-46.4-4.1l-45.4-1.8-5.6-12.7c-2.2-4.8-2.3-10.6-7-12.9-3.8-1.7-9.3-2.7-12.4 0-3 2.6-1.8 11.8-1.8 11.8s-9.5-2-13.5 0c-4.4 2.2-7 5-7 10-.1 5.7 3 12 8.2 14.6 2.3 1.2 7.6 1.2 7.6 1.2s-4.6 2.3-5.8 5.9c-1.6 4.6 0 10.8 3.5 14 4.2 4 8.6 3.7 14 1.8 4.7-1.5 10-8.2 10-8.2s8.5-1 11.8 1.2c2.6 1.7 3.9 5.2 4.7 8.2.6 2.3.9 4.9 0 7-2.4 6-12.3 15-12.3 15s9.5.6 14-1c9.2-3 21.6-14.8 21.6-14.8s-.8 5.6-3.2 8.7c-3 4-10.7 10.4-10.7 10.4s14.6-1.5 21.5-4.8c6.1-3 14.8-13.7 14.8-13.7s-.2 5.2-1.4 7.9l-5 10.5s13.3-3 19.1-6.4c4.4-2.6 9.9-10.9 9.9-10.9s.2 5.7-.7 8.7c-.8 2.7-4.7 8.4-4.7 8.4s12.6-2.4 18-5.3c5.5-3 13.3-13.3 13.3-13.3s7.4-1.8 12.1.9c9.5 5.3 13.7 18 24.7 23.8 17.8 9.4 41.6 14.8 49.2 35.6 2.7 7.2 2.8 12-.8 18.7-4.5 8.2-23.2 18.2-28 27.2 0 0-7.6 10.3-9.4 20.4a33.4 33.4 0 0 0 2.6 19.5c3.5 7.7 10.5 13.3 17 18.7 7.6 6.5 25.4 16.1 25.4 16.1l3 6.1s-11.2 7.8-15.4 13.2c-5.2 6.7-13.6 21.4-13.6 21.4s-5.2-5.5-11-7.6c-4.5-1.6-10.8-3.3-14.2 0-3.3 3.2-3.5 7-1.9 11.2 1.5 3.8 6.8 6.8 6.8 6.8s-4.4 4.1-5.6 6.8c-1.3 3.3-1.3 7.6.7 10.5 2.6 4 7 3.4 11.7 3.8 3.4.2 10-1.3 10-1.3s-1.6 4-1.3 6.2c.4 3.6 1.3 8 4.3 10a14.5 14.5 0 0 0 15-.7c6.8-4.8 9.5-22.7 9.5-22.7z"/>
    <path id="g" fill="#e94545" stroke="#a00" stroke-width="4" d="M84 136.8c3 3.5 3 7.3.2 10.5-1.4 1.6-3.6 2.3-6.8 1.4-2.5-7.2-4.3-9.4-11.5-12.3 11.8-4.4 14.8.4 18.2.4zm-27.7 16c4.2 1.7 6 5 5.1 9.2-.4 2-2 3.7-5.3 4.4-5.6-5-8.3-6.2-16-5.3 8.3-9.5 13.2-6.7 16.2-8.3zm9.1 35.6c4.4-.7 7.7 1.3 9.1 5.3.7 2 .2 4.3-2.3 6.5-7.4-1.5-10.3-1-16.5 3.7 2.3-12.4 8-12.6 9.7-15.5z"/>
    <path id="h" fill="#e94545" stroke="#a00" stroke-width="4" d="M244.6 419.7c3.6 2.6 4.6 6.4 2.7 10.2-1 1.9-2.9 3.1-6.2 3-4.2-6.3-6.6-8-14.3-9 10.3-7.2 14.5-3.4 17.8-4.2zm-2.2 27.9c4.4-.7 7.7 1.3 9 5.3.7 2 .2 4.3-2.3 6.5-7.4-1.5-10.3-1-16.5 3.7 2.3-12.4 8-12.6 9.8-15.5zm26.6 16.5c4.5-1 7.9.9 9.5 4.8.8 2 .4 4.2-1.9 6.6-7.5-1-10.4-.4-16.2 4.7 1.5-12.5 7-13.1 8.7-16z"/>
    <path id="i" fill="#e94545" stroke="#a00" stroke-width="3.1" d="m286.3 81-29.2-6.4c-9.8-2.3-24.1 2.3-33.8-.8-5.7-1.8-7-3.1-9.8-8.4a35 35 0 0 1-2.6-8.8s-4.7 6-4 11c.7 4.5 4 9 7.9 11.1 11.1 6 30.5 2 42.7 4.8 8.6 2 19 14 19 14l9.8-16.5z"/>
    <path id="j" fill="#756412" d="M270.2 36.8c3.2 0 6 .5 8 1.7a6 6 0 0 1 3.2 5.5c0 2.3-1 4.5-2.9 6a12.7 12.7 0 0 1-7.8 2.8c-6.6.2-11.9-4.5-12-9.3-.1-2.5 1.4-4.2 3.5-5.2 2.2-1 4.9-1.4 8-1.5zm0 2c-3 .1-5.5.6-7.2 1.3-1.7.8-2.4 1.6-2.4 3.3.1 3.4 4.4 7.6 10 7.4 2.9 0 5.1-1 6.6-2.2a5.7 5.7 0 0 0 2.2-4.6c0-1.8-.8-3-2.3-3.9-1.5-.9-3.9-1.4-6.8-1.3z" font-family="Bitstream Vera Sans" font-weight="400" overflow="visible" style="text-indent:0;text-align:start;line-height:normal;text-transform:none;block-progression:tb;marker:none;-inkscape-font-specification:Bitstream Vera Sans"/>
    <path id="k" fill="#806600" d="m288.9 59.5 2.2 4.8a36 36 0 0 1 2.4 7.9c.7 5.4.6 11.3-1.7 15.8-3 5.7-8.2 8.7-14.8 11a33.1 33.1 0 0 1-13.7.9c-5-.4-10.1-1-15.3 0a28 28 0 0 0-7.2 3l-4 2.2 2.1 3.3 3.7-2.1c2.1-1.1 4.7-2.3 6.1-2.6 4.4-.9 9.3-.3 14.3.1s10.3.7 15.4-1.1c6.9-2.5 13.3-5.9 16.9-12.8a31.3 31.3 0 0 0 2.2-18c-.3-2.9-2.5-9-5.2-10.5l-3.4-2z" font-family="Bitstream Vera Sans" font-weight="400" overflow="visible" style="text-indent:0;text-align:start;line-height:normal;text-transform:none;block-progression:tb;marker:none;-inkscape-font-specification:Bitstream Vera Sans"/>
    <path id="l" fill="none" stroke="#806600" stroke-width="3.1" d="M318.8 64s9.5 5.8 12.1 10.4c4.9 8.7-.8 18.4 3.9 27 1.7 3.2 5.5 5 5.5 5s-4.3 3.8-8.3 2.8c-3.6-.9-7.7-2.2-7.7-2.2s7.3 8.6 7.7 16c.6 8.5-9.1 15.2-9.9 23.7a57 57 0 0 0 3.9 17.7s-5.6-1.8-8.3-4c-2.3-1.7-6.6-7-6.6-7l2.2 12c1 5.9-10.6 9.6-11.6 16.6-.6 4.5 3.3 9.4 3.3 9.4s-10.6-2.4-14.9-5.5c-3.4-2.5-7.7-10-7.7-10s-3.9 10.2-7.2 13.8c-3.7 4-11.5 6-17.8 9-10.7 5-20.2 9.8-20.2 9.8s1.9-7.1 1-11c-1.2-6.2-9.7-12.7-12.6-18.3-3-5.5 0-13.2 0-13.2s-7 6.7-12.2 7.7C207.8 175 197 171 197 171l10-4.3c2.8-1.3 1.8-6.1 2.9-8.8a27 27 0 0 1 6.8-7.5l-13.2-.4s9.6-4.5 10.2-11c.2-1.7-.4-6.9-.4-8.5 0-5.7 5-10.5 9.8-13.6 3-2 11-2.8 12.7-6l3.4-5s-4.3 2.8-8.2 3.3c-3.8.5-9.8-1.3-9.8-1.3l8.5-8c1.4-1.3-.9-6.8-.4-8.5.9-3.3 7.7-4.7 7.7-4.7s15 2.2 21.2-1.5c6-3.5 8.2-9.3 6.2-15.3l-1.3-4c-1.6-5.2-19.7-.6-25 .1-4.7.6-10.1-1.5-12.6-5.5-4.6-7.5-.8-13.5 0-21 18.1-2.6 16.1-.6 28.7-1.3 5-4.9 10.1-7.6 15.2-8.9l43 6c2.8 6.8 16.2.8 13 6.4 13.7-1.4 14.2 1.8 16.7 3.5 0 0-2 8-5.7 12.5-4.3 5.3-17.6 6.3-17.6 6.3z"/>
    <path id="m" fill="#e94545" stroke="#a00" stroke-width="3" d="m265 7 4.7 8s4 .2 5.3 1.4a5.8 5.8 0 0 1 1.8 5.3c-.4 1.8-2 3.6-3.8 4.5l-3.2 1.7S276 32 280 32.6c5 .7 10.2-2.5 10.2-2.5s-3.3-2.5-4.2-4.2c-.7-1.3-1.3-3-.8-4.5a8.7 8.7 0 0 1 5.4-5.3c1.2-.4 3.5.9 3.5.9l8.5-5.2L306 20s2.8 0 3.6 1c1.5 1.6 1.5 4.6.5 6.8-.7 1.4-2.4 2.5-3.9 3.3-2 1-6.4 1.4-6.4 1.4s1.7 5 6.3 6.7c3.7 1.4 12 1 12 1l-1.4-2.8a6 6 0 0 1 .2-5.5c1-1.7 3.2-3.1 5.3-3.5 1.9-.3 5.3 1.4 5.3 1.4l9.5-4.3-18 25.4c-1.4.8-2.4 2-3.4 1A146 146 0 0 0 261 38.5L265 7z"/>
    <path id="n" fill="#ececec" fill-rule="evenodd" d="M2700.2 785c0 3.8-2 7.4-5.3 9.3a10.2 10.2 0 0 1-10.4 0c-3.3-2-5.3-5.5-5.3-9.3 0-3.8 2-7.3 5.3-9.2 3.2-2 7.2-2 10.4 0 3.3 1.9 5.3 5.4 5.3 9.2z" overflow="visible" style="marker:none"/>
    <path id="o" fill="#fff" fill-rule="evenodd" d="M2690.3 778c0 2-1.6 3.4-3.5 3.4s-3.4-1.5-3.4-3.4c0-1 .7-1 1.4-1.6.6-.5 1.7-1.6 2.6-1.6 2 0 2.9 1.3 2.9 3.2z" overflow="visible" style="marker:none"/>
    <path id="p" fill="none" stroke="gray" stroke-width="1.4" d="M2700.2 785c0 3.8-2 7.4-5.3 9.3a10.2 10.2 0 0 1-10.4 0c-3.3-2-5.3-5.5-5.3-9.3 0-3.8 2-7.3 5.3-9.2 3.2-2 7.2-2 10.4 0 3.3 1.9 5.3 5.4 5.3 9.2z" overflow="visible" style="marker:none"/>
  </defs>
  <path fill="#1a1a1a" d="M453 316.8c-15 119.5-74.7 177.3-214 177.3-139.4 0-199.2-57.8-214.1-177.3L0-1.8h478l-25 318.6z"/>
  <path fill="#2b96f6" d="m18.7 237.2 6.2 79.6c15 119.5 74.7 177.3 214 177.3V237H18.8z"/>
  <path fill="#f9f9f9" fill-rule="evenodd" d="m65.2 237.2 18.6 31 78 32.5-38-63.5H65.1zm96.6 63.5 39 65 38.2 15.9v-48.8l-77.2-32.1zm39 65-78-32.5 39 65 77.2 32.1v-1l-38.2-63.6zm-39 32.5-78-32.5 39 65 78 32.5-39-65zm39 65 18.3 30.4c6.4.3 13 .5 19.9.5v-15l-38.2-16zm-78-32.5L47 399c20.8 44 55.4 72.3 108.4 85.8l-32.6-54.2zm-39-65-39-65-21.9-9.2 2 25.3a367 367 0 0 0 4.2 26l54.7 22.9zm-39-65 78 32.5-39-65-64.8-27 1.4 18.9 24.4 40.6zm81.6-63.5 74.4 31-18.6-31h-55.8zm74.4 31 38.2 63.5v-47.6l-38.2-16z"/>
  <path fill="#f9f9f9" d="M239-1.8v239h220.2L478-1.8H239z"/>
  <path fill="none" stroke="#806600" stroke-miterlimit="3.9" stroke-width="3" d="M453 316.8c-15 119.5-74.7 177.3-214 177.3-139.4 0-199.2-57.8-214.1-177.3L0-1.8h478l-25 318.6z"/>
  <use xlink:href="#a" stroke-width="3.1" transform="matrix(.48208 0 0 .47194 11.2 5)"/>
  <path fill="#fee46e" d="M101.4 74s2.8 6.6 4.8 7.6c1.8 1 3.4-.6 3.4-.6l-1.2-2.8-3.9-1.3c.9-3.8 8.3-2 6.6-9.7L96 51.2c-3.6-3.5-13.3-11.6-13.3-11.6s-2.1-5.8-2.4-9.7a10 10 0 0 1 1-5c.8-1.6 3.1-2.1 3.6-3.8a2 2 0 0 0-.4-1.7c-.4-.5-1.1-.9-1.8-.9-2.3 0-6.2 3.7-6.2 3.7s-2.3-4.6-4.4-5.7c-.8-.5-2-.5-2.9-.2-.8.4-1.6 1-2 2-.8 3 1.7 9 1.7 9s-5.5-1.6-7.7-.2c-.8.5-1.2 1.7-1.2 2.8.1 1.1.9 2.2 1.7 3 2.4 1.8 8.5 2.5 8.5 2.5l7 10.6-7.5 2c2.9 1.7 5.1 2.3 13 2.7-1.7 3.5-4 4.6-6.1 6.1l13.1 2.6c-1.2 3.4-4.6 3.6-6.2 5A33 33 0 0 0 97.4 69c-.8 2.9-4.2 3.4-6.8 4.7 1.9.9 5.2.4 10.8.4z"/>
  <path fill="#f8eca8" d="M102.4 64.5C96.7 51.5 86.8 44.2 76 37a110.5 110.5 0 0 0 26.3 27.5z"/>
  <use xlink:href="#b" stroke-width="4" transform="matrix(.48208 0 0 .47194 11.2 5)"/>
  <use xlink:href="#c" stroke-width="3.1" transform="matrix(.48208 0 0 .47194 11.2 5)"/>
  <path fill="#fee46e" d="m133 151.8-2.5-6.3c-.8-2.1 3.6-3.7 3.3-6a7.4 7.4 0 0 0-3.7-5.8c-2.9-1.5-15.3 1.2-18.5 1.7-4.8.7-9.4 2.8-13.7 5-4.7 2.5-12.9 9.1-12.9 9.1s.6 2.9 1.4 4.1c2.7 4.3 8.2 6 8 11 0 3.1-2.1 4.3-4.1 5.8a33 33 0 0 1-14 5.4c-4 .8-10.7.5-10.7.5s-2.5-7.3-5-10.1c-.5-.6-1.3-1.7-2-1.4-2 1-1 6.5-1 6.5s-4.4-2.2-6.8-2.2c-1.6 0-2.9-.4-3.6 1-.4.9-.6 2 0 2.7 1.5 1.4 6.9 4 6.9 4s-5.7 2-6.8 4.3c-.6 1.2-1.2 2.3-.3 3.2 1 .8 2.7.6 3.9.4 4-.9 11.7-4.1 11.7-4.1l9.4 3 .6 4 6.8-7.8 3 7.2 3.1-6.8 6.5 5.2 3.3-7.1 6 4.9-1.2-7.7s5 1.2 7.6 1.2c1 0 2.2.3 2.8-.4.6-.9 0-2.2-.5-3.1-.7-1.6-3.6-3.8-3.6-3.8s-3.3-6.6-2.8-10c.3-2 .8-4.6 2.9-5 5.3-1 27.3 2 26.5-2.6z"/>
  <path fill="#f8eca8" d="M114 137.3s-8 1.6-11.6 3.2A85 85 0 0 0 87.9 151l7.3 9.9-3-9.7s6.7-3.6 9.7-5.6c4.6-3 12-8.3 12-8.3z"/>
  <use xlink:href="#d" stroke-width="4" transform="matrix(.48208 0 0 .47194 11.2 5)"/>
  <use xlink:href="#e" stroke-width="3.1" transform="matrix(.48208 0 0 .47194 11.2 5)"/>
  <path fill="#d1b948" d="M152.5 218s2-.5 2.8 0c2 1.2 5.2 4.2 5.2 4.2s.8-3.7 0-6.6c-.6-1.8-3.6-4.2-3.6-4.2s3.9-1 5.7.3c1.7 1.2 3.9 5.5 3.9 5.5s.8-4.7.2-7.6c-.4-2.3-4.2-5.5-4.2-5.5s3.1-.6 4.5 0c2.4 1.1 5 6 5 6s2-6.4.5-9.9c-.7-1.6-4.2-3.2-4.2-3.2s4.9-1.3 6.7 0c2.3 1.6 3.3 5.4 3.3 5.4s2.3-4.7 1.5-8.1c-.5-2.1-4-5.2-4-5.2s2.7-2.2 3.5-3.7c.7-1.2 1.6-2.8 1-4.2-.6-1.3-2.4-2-4-2.2-1.7-.2-5.2 1.2-5.2 1.2l-2.2-1.9c-3.9-3.3-6-8.6-6.6-14-.6-5.5 4-16 4-16s2.1 6.8 5.4 10.6a17 17 0 0 0 9.1 5.4c4.4 1 6.7 1.2 10.7-.8 3.7-1.8 7.7-4.7 8.6-8.6 3.6-15.4-1-40.2-.8-38.3 0 0 2.5-3.2 3.3-5.4.9-2.7 1.6-9.2 1.6-9.2a8.4 8.4 0 0 1 4.7-5.1 6 6 0 0 1 4.4 0c2.2.8 5.2 4.8 5.2 4.8s-.2-5.7-1.9-7.8a10.8 10.8 0 0 0-7.4-3.8c-4.3-.2-8.5 1.4-8.5 1.4s4.6-5 6.8-9.8c1.7-3.9 2-11 2-11 0-5.3-2.6-11.2-6.2-15.4-4.6-5.2-12.6-8.8-12.6-8.8s2.9 4.6 4.8 9.3c1.3 3.2 1.8 7.3 1.8 7.3s-2.7-2.7-5.1-4.6c-3.3-2.7-9.7-2.8-9.7-2.8s5.6 4.3 7.4 9.3c.8 2.3.8 4.9.5 7.2-.5 3.8-2.6 9.3-3.5 13-1.2 5.2-2.8 8.3-2.5 13.6.3 5.3 4.1 15.6 4.1 15.6s-6.3.8-8.6 2.3c-3.3 2.1-3.8 8.8-3.8 8.8s3.6-3.5 5.9-4c1.7-.4 5 1.6 5 1.6s-6.5 2.5-8.3 5.2c-1.8 2.6-1.7 8-1.7 8s2.4-3.3 4.6-4.4c1.8-.9 6.1 0 6.1 0s-5.9 3.6-7.4 6.5c-1.3 2.6-.8 8.8-.8 8.8s2.7-4.3 4.9-5.4a8.3 8.3 0 0 1 5.3-.8c1.7.4 2.9.8 3.8 2.2 1.6 2.5 1.3 5.8 0 8.9-1 2.3-1.8 4.3-4.1 5.2a12 12 0 0 1-9.5 0c-3.5-1.7-3.8-3.3-5.3-6.8-3-6.8-2.6-16.2-5.4-23-2.3-5.7-7.7-9.5-9.5-15.3-1.8-6 .1-12.7-.8-19-.5-3.8-2.7-9.8-3.3-13.7-.4-3 0-6.8 0-6.8L128 71.3l-15 13s-5.6 1.4-8.6 1.6c-7 .4-15.2-1.7-22.4-2l-21.8-.8-2.7-6c-1-2.3-1.1-5-3.4-6-1.8-1-4.5-1.3-6 0-1.4 1.1-.8 5.5-.8 5.5s-4.6-1-6.5 0c-2.1 1-3.4 2.4-3.4 4.7 0 2.7 1.5 5.7 4 6.9 1 .6 3.6.6 3.6.6s-2.2 1-2.8 2.7c-.8 2.2 0 5.1 1.7 6.7 2 1.8 4.1 1.7 6.8.8 2.2-.7 4.8-3.9 4.8-3.9s4-.4 5.6.6c1.3.8 2 2.4 2.3 3.9.3 1 .4 2.3 0 3.3a30 30 0 0 1-6 7s4.7.3 6.8-.4c4.4-1.5 10.4-7 10.4-7s-.3 2.6-1.5 4.1a45 45 0 0 1-5.1 5s7-.8 10.3-2.4c3-1.4 7.2-6.4 7.2-6.4s-.1 2.4-.8 3.7l-2.3 5s6.3-1.4 9.2-3a21 21 0 0 0 4.7-5.2s.1 2.7-.3 4a23 23 0 0 1-2.3 4s6.1-1 8.7-2.4c2.7-1.5 6.4-6.3 6.4-6.3s3.6-.9 5.9.4c4.5 2.5 6.5 8.5 11.9 11.2 8.6 4.5 20 7 23.7 16.9 1.3 3.3 1.3 5.6-.4 8.8-2.2 3.9-11.2 8.5-13.5 12.8 0 0-3.6 4.9-4.5 9.6-.6 3-.1 6.4 1.2 9.2 1.7 3.6 5 6.3 8.2 8.9a108 108 0 0 0 12.3 7.6l1.4 2.9s-5.4 3.6-7.4 6.2c-2.5 3.1-6.6 10-6.6 10s-2.5-2.5-5.3-3.5c-2.1-.8-5.2-1.6-6.8 0-1.6 1.5-1.7 3.3-1 5.3.8 1.8 3.3 3.2 3.3 3.2s-2 2-2.6 3.2c-.7 1.5-.7 3.6.3 5 1.2 1.8 3.4 1.6 5.6 1.7 1.6.1 4.8-.6 4.8-.6s-.7 1.9-.6 3c.2 1.6.6 3.7 2.1 4.6 2 1.3 5.2 1 7.2-.3 3.3-2.2 4.6-10.7 4.6-10.7z"/>
  <path fill="#fee46e" d="M122 104.7s1.5-4.3.8-6.4c-.8-2.6-4.4-3.7-5.7-6.2-.4-1-.6-3.1-.6-3.1s-2.7 1.8-4.2 2c-2.4.2-4.6-1.7-7-1.8-2-.1-6 1-6 1s-13.3-2.4-18.6-3c-8.1-1-22.8 0-22.8 0L54 76.8s0-1.7-1-2.4c-.7-.5-2-.6-2.7 0-1.3 1.3 0 5.8 0 5.8s-5-1.8-7.5-.6c-1 .5-2 1.5-2 2.6s1 2.1 2 2.8c2.5 1.7 9 2.8 9 2.8s-5.5 1.9-6.5 4.1c-.5 1-.8 2.5 0 3.2 1 1 3 .7 4.4.2 2.2-.6 5.3-4 5.3-4s6.6.2 9 2c1.6 1.3 2.2 3.6 2.6 5.6.3 1.4.1 2.8 0 4.2l-.2 2.2L78 96.1c1.5 3.6.2 7.2-1.6 10.8l11.2-9.6c2.5 3.2 1.2 6.4 0 9.6l10.2-8.8c2.4 3.2 1.8 5.8 1 8.4 0 0 2.8-1.3 4-2.2 2.5-1.7 6.8-5.8 6.8-5.8s4.2 1 6.1 2c2.3 1.1 6.3 4.2 6.3 4.2z"/>
  <path fill="#f8eca8" d="M102 92.5a101 101 0 0 0-38.3-4.2c14.9 3.9 27.2 5 38.4 4.2z"/>
  <path fill="#fee46e" d="M160.1 191.8s-1.7-5-3.3-7c-5-6-15-8.3-18.4-15.2-1.3-2.5-1.1-4.5-.3-7.2 1.3-4.2 4.7-7.5 7.3-11 3.1-4.2 8.6-6.9 10.1-11.7 1.4-4.3.6-9.4-1.2-13.5a20.5 20.5 0 0 0-7-7.8c-5.2-3.7-12.7-3.6-17.5-7.8a13 13 0 0 1-2.1-3.6s13.4-3.2 18-7.5C147 98.3 148 96 148 96l7 2.7s-.5 9.6 1 14.1c1 3.2 2.4 5.8 4.2 8.7 1.9 3 5 5.3 5.8 8.7a22 22 0 0 1-.3 10.8c-1.4 5-6.6 10.6-7.6 15.8-.8 4-1 8.3 0 12.3a43.1 43.1 0 0 0 8.5 13.2l3.7 1.8s4.4-1.8 5.2-.3c1.2 2-4.3 5.7-4.3 5.7l3.7 3.9-13.1 3 5.5 4.7-10.7.3 5.8 7.8h-11l5.5 5.7-5.2.3s-1.7 7.2-4.3 9.6c-1 .8-2.6 2-3.7 1.2-1-.7 0-2.4 0-3.6v-4.8s-4.4 1-6.7 1.2c-1.6 0-3.8 1-4.6-.3-1-1.7 2.4-5.4 2.4-5.4s-3.2-2.8-4-4.8c-.1-.5-.4-1.3 0-1.8 1-.9 2.8-.3 4 0 3 1 8 5.1 8 5.1l6.4-11 11-8.7zm57.6-92.1s-3-5-5.6-6c-2.4-1.1-3.6-.6-6.2.2a9.3 9.3 0 0 0-5.2 4.3c-1.5 3-1.3 6.4-2.2 9.6-1 4-6.1 11-6.1 11l-4.3-6.4.5.5-4-10.4V95l2.9-11 2.8-10.3v-5.3l-2.4-6.7-5.6-6 8.7 1.8 6.3 5.3-2.2-7.7-4-8.3 9 5.1 8 10.7 1.8 9.8-3.2 11.5-4.8 6.6h9.8l5.4 3.7.6 5.5z"/>
  <path fill="#f8eca8" d="M186.8 55.8s5 3.3 6.3 5.7c2.2 3.6 3 8 2.9 12.2-.1 2.5-1.3 4.9-2.2 7.2-1 3-3 5.6-3.7 8.6-.9 3.4-1.3 7.1-.9 10.6.3 2.3 2 6.4 2 6.4-2.3-1-4.5-2.7-6.8-9.3v-4.3l3.7-10.7L191 72l-.5-6.2-4.1-6.4L183 56l3.7-.2z"/>
  <use xlink:href="#f" stroke-width="3.1" transform="matrix(.48208 0 0 .47194 11.2 5)"/>
  <use xlink:href="#g" stroke-width="4" transform="matrix(.48208 0 0 .47194 11.2 5)"/>
  <path fill="#f8eca8" d="M131.8 108.4s2 1.8 3.1 2.5c3.8 2 8.7 1.5 12 4l7.6 5.6-10.4-16.7s-2.8 2-4.4 2.8c-2.5 1-8 1.8-8 1.8zm21.2 40.2s-8.5 5.8-10.8 11.4a12 12 0 0 0 0 9.6c3.4 7.9 16.1 12 16.1 12s-9.1-5.3-11.4-12.3c-.8-2.7-.5-5.6 0-8.4 1-5 6-12.3 6-12.3z"/>
  <use xlink:href="#h" stroke-width="4" transform="matrix(.48208 0 0 .47194 11.2 5)"/>
  <use xlink:href="#i" stroke-width="3.1" transform="matrix(.48208 0 0 .47194 11.2 5)"/>
  <path fill="#fff" d="M122.4 48.3c.8-4.6 1.8-5 2.8-6.5v6.4l-2.8.1zm0-13.6c.8 4.6 1.8 5 2.8 6.6v-6.5l-2.8-.1z"/>
  <path fill="#fee46e" d="m106.2 85.7 4.8-2.1c1.4-.6.9-2.9 1.4-4.2.6-1.4 3.3-3.5 3.3-3.5l-6.4-.2s4.7-2.1 5-5.2l-.2-4c0-2.7 2.4-5 4.7-6.4 1.4-1 5.3-1.3 6.1-2.8l1.5-2.6s-2 1.3-3.9 1.6c-1.8.2-4.7-.6-4.7-.6l4-3.9c.7-.6-.4-3.1-.1-4 .4-1.5 3.7-2.2 3.7-2.2s6.8 1.3 9.8-.5a6.6 6.6 0 0 0 3.4-7.7l-.7-1.9c-.8-2.4-9.8.8-12.3 1.2-2.3.2-4.5-.8-5.6-2.7-2.2-3.5-.4-7 0-10.5l13.6-.6c7.5-5.2 32.2-4.7 34.4 1.8 0 .5 1.7-1 3.5-.8 2.2.1 4.7 2 4.6 2.5-.2 1.6-1.6 4.4-3.1 5.9-1.1 1-2.3.9-3.3 1.6-1.1 1-4.8 1.2-4.8 1.2s4.6 2.8 5.9 5c2.3 4-.4 8.6 1.8 12.7.8 1.5 2.7 2.4 2.7 2.4s-2 1.7-4 1.3l-3.7-1s3.5 4 3.7 7.5c.3 4-4.4 7.1-4.8 11.2-.2 2.8 1.9 8.3 1.9 8.3s-2.7-.8-4-1.8c-1.1-.8-3.2-3.4-3.2-3.4l1 5.7c.6 2.8-5 4.6-5.5 7.8-.3 2.1 1.6 4.5 1.6 4.5s-5.1-1.2-7.2-2.6a20.6 20.6 0 0 1-3.7-4.7s-1.9 4.8-3.5 6.5c-1.8 1.9-5.5 2.8-8.6 4.2l-9.7 4.6s.9-3.3.5-5.2c-.6-2.9-4.7-6-6.1-8.6-1.4-2.6 0-6.2 0-6.2s-3.4 3.1-5.9 3.6c-2.7.6-8-1.2-8-1.2z"/>
  <path fill="#fff" d="M136.4 25.4c0 2 2.4 4 5.3 4 3-.1 4.8-1.8 4.7-3.7 0-2-1.9-3-4.9-2.9-3 0-5.2.7-5.1 2.6z"/>
  <path fill="#2b2200" d="M139.2 25.8a2 2 0 0 0 1 1.6 2 2 0 0 0 2 0 2 2 0 0 0 0-3.4 2 2 0 0 0-2 0c-.6.4-1 1-1 1.8z"/>
  <use xlink:href="#j" font-family="Bitstream Vera Sans" font-weight="400" overflow="visible" style="text-indent:0;text-align:start;line-height:normal;text-transform:none;block-progression:tb;marker:none;-inkscape-font-specification:Bitstream Vera Sans" transform="matrix(.48208 0 0 .47194 11.2 5)"/>
  <path fill="#d1b948" d="M165 35.1s4.5 2.8 5.8 5c2.3 4-.4 8.6 1.8 12.7a6.8 6.8 0 0 0 2.7 2.4s-2 1.7-4 1.3l-3.7-1s3.5 4 3.7 7.5c.3 4-4.4 7.1-4.8 11.2-.2 2.8 1.9 8.3 1.9 8.3s-2.7-.8-4-1.8c-1.1-.8-3.2-3.4-3.2-3.4l1 5.7c.6 2.8-5 4.5-5.5 7.8-.3 2.1 1.6 4.5 1.6 4.5s-5.1-1.2-7.2-2.6a20.6 20.6 0 0 1-3.7-4.7s-1.9 4.8-3.5 6.5c-1.8 1.9-5.5 2.8-8.6 4.2l-9.7 4.6s.9-3.3.5-5.2c-.6-2.9-4.7-6-6.1-8.6-1.4-2.6 0-6.2 0-6.2s-3.4 3.1-5.9 3.6c-2.7.6-8-1.2-8-1.2l5-2.1c1.3-.6.8-2.9 1.3-4.2.6-1.4 3.3-3.5 3.3-3.5l-6.4-.2s4.7-2.1 5-5.2l-.2-4c0-2.7 2.4-5 4.7-6.4 1.4-1 5.3-1.3 6.1-2.8l1.5-2.6s.8 1.7.7 3.2c0 1.5-.3 3.2-1.4 4.2-1.4 1.3-7.4 2.3-7.4 4.2 0 2.5 0 3.4-.7 5.7l5.7-2s-4.6 6.3-6 9.2a10 10 0 0 0-.5 2.8s3.3-3.1 5.2-4.2c1.4-.8 10.9-10.3 10.9-10.3s-9 15.4-8.1 18.5c.7 2.9 3.8 4.7 4.7 7.5.4 1 .3 3 .3 3s7.7-2.9 10.3-5.5c3.5-3.6 5.5-21.1 5.5-21.1s3.3 14.4 5.5 17c.6.8 2.1 2.2 2.1 2.2s2.9-4.2 3.6-6.8c1.5-5-4-26.3-4-26.3l10 17.1s-.1-4.3.7-6.3c.8-1.8 1.7-2.5 2-4.4.6-4.4-7-17.9-7-17.9l10.8 7.8s-.6-6.7-1.5-9.9c-.6-2.5-2.9-7.3-2.9-7.3z"/>
  <path fill="#d1b948" d="M122 48.9s2.2 1.9 3.6 2c2.1.4 4-1.1 6.2-1.3 3.1-.4 6.4.7 9.5 0 2.8-.7 5.9-1.7 7.7-3.8 2.5-3 3-11.1 3-11.1l1.1 1.2.5 5.7-1.3 6.1-4.6 4-5.4 1.8-6.9-.6h-4.3l-4 2-4.5 1.7-4.3-1.2 3.7-3.5v-3z"/>
  <use xlink:href="#k" font-family="Bitstream Vera Sans" font-weight="400" overflow="visible" style="text-indent:0;text-align:start;line-height:normal;text-transform:none;block-progression:tb;marker:none;-inkscape-font-specification:Bitstream Vera Sans" transform="matrix(.48208 0 0 .47194 11.2 5)"/>
  <path fill="#d1b948" d="m119.7 23.4-.6 4.8s4-.3 5.6-1c2.4-1 3.7-4.3 3.7-4.3l-8.7.5z"/>
  <path fill="#f8eca8" d="m136.9 20.3 4.3-1.4 4.1-.9 8.7 1 9 1.3 7.3-3c-3 0-.8-.2-.8 1.1 0 1-2 4-5 4.7-3.5.8-11.8-1.4-19.3-1.5-4.9 0-9.4 1.5-12 1.6l3.7-2.9z"/>
  <use xlink:href="#l" stroke-width="3.1" transform="matrix(.48208 0 0 .47194 11.2 5)"/>
  <path fill="#806600" d="M161.8 31.8c3-5.2 6.4-5.7 12-5-2 4-4.5 8.3-12 5z"/>
  <path fill="#f8eca8" d="M142.8 61s-11 11.5-11 18c0 2.1 2.3 3.8 2.5 5.9.3 2.3-1.2 7-1.2 7s4.8-4.7 5-7.4c0-2.4-1.9-4.5-2-7 0-5.8 6.7-16.5 6.7-16.5zm-16.9 9.5s4.2-2 5-3.4c.7-1.4.5-4 1.4-5.3 1.8-2.7 6.2-4.4 6.2-4.4s-5.9.2-8.1 3.2c-.9 1.1-.7 3.5-1 4.9-.4 1.6-3.5 5-3.5 5zM153.4 82s-3-3.5-3.2-5c0-1.6 1.2-3.9.9-5.4-.6-3.2-3.8-6.5-3.8-6.5s5.2 2.5 6 6.1c.3 1.4-.8 3.5-1 4.9-.4 1.6 1 6 1 6zm9.3-15.3s-3.5-3-3.9-4.5c-.3-1.5.5-4 0-5.5-1-3-4.8-5.8-4.8-5.8s5.6 1.7 7 5.1c.5 1.3-.3 3.6-.3 5a18 18 0 0 0 2 5.7z"/>
  <use xlink:href="#m" stroke-width="3" transform="matrix(.50186 0 0 .4913 6.6 .2)"/>
  <path fill="#806600" fill-rule="evenodd" d="M168.6 23.8c-5 1.3-4.6 3-7.1 4.8 2.9-.2 3.8-2.5 7.4-3.3l-.3-1.5z"/>
  <use xlink:href="#a" stroke-width="3.2" transform="matrix(.46626 0 0 .4696 225.1 244.5)"/>
  <path fill="#fee46e" d="M312.3 313.2s2.8 6.5 4.6 7.6c1.8 1 3.3-.7 3.3-.7l-1-2.7-3.9-1.3c.9-3.8 8-2 6.4-9.6 0 0-12-13.3-14.6-16a309.8 309.8 0 0 0-12.8-11.5s-2.1-5.8-2.4-9.7c0-1.7.3-3.6 1-5 .8-1.6 3-2 3.4-3.8.1-.5 0-1.2-.3-1.6-.4-.6-1.1-1-1.7-1-2.3.1-6 3.7-6 3.7s-2.3-4.6-4.3-5.7c-.8-.4-2-.5-2.8-.1-.8.3-1.6 1-1.9 2-.8 2.8 1.6 9 1.6 9s-5.4-1.7-7.5-.3c-.7.5-1.2 1.7-1.1 2.8 0 1.1.8 2.2 1.7 2.9a21 21 0 0 0 8.2 2.6l6.8 10.5-7.3 2c2.7 1.7 5 2.3 12.5 2.7-1.6 3.5-3.9 4.6-5.9 6l12.7 2.6c-1.1 3.5-4.4 3.6-6 5 3.2 2.5 8.3 3.6 13.4 4.5-.7 2.8-4 3.4-6.6 4.6 1.9 1 5.1.5 10.5.5z"/>
  <path fill="#f8eca8" d="M313.3 303.7c-5.5-12.9-15.1-20.2-25.4-27.4 8 12.7 17 20.6 25.4 27.4z"/>
  <use xlink:href="#b" stroke-width="4.1" transform="matrix(.46626 0 0 .4696 225.1 244.5)"/>
  <use xlink:href="#c" stroke-width="3.2" transform="matrix(.46626 0 0 .4696 225.1 244.5)"/>
  <path fill="#fee46e" d="m343 390.6-2.5-6.3c-.8-2.1 3.4-3.7 3.2-5.9a7.4 7.4 0 0 0-3.6-5.9c-2.8-1.4-14.8 1.3-18 1.7-4.6.7-9 2.8-13.2 5-4.5 2.5-12.4 9.1-12.4 9.1s.6 2.9 1.3 4c2.6 4.3 8 6 7.8 11 0 3.1-2.1 4.3-4 5.8a31.3 31.3 0 0 1-13.5 5.3c-3.8.8-10.4.6-10.4.6s-2.4-7.3-4.8-10.1c-.5-.6-1.3-1.7-2-1.4-2 1-1 6.5-1 6.5s-4.2-2.2-6.5-2.2c-1.6 0-2.8-.4-3.5 1-.4.9-.6 2 0 2.6 1.4 1.5 6.6 4 6.6 4s-5.4 2.1-6.5 4.3c-.5 1.2-1.2 2.3-.3 3.2.9.8 2.6.6 3.8.4 3.9-.8 11.3-4 11.3-4l9 3 .6 4 6.6-7.8 2.9 7.1 3-6.7 6.3 5.2 3.2-7.2 5.8 4.9-1-7.6s4.8 1.1 7.2 1.1c1 0 2.2.4 2.7-.4.6-.8 0-2.1-.4-3-.8-1.6-3.5-3.8-3.5-3.8s-3.2-6.5-2.7-10c.2-2 .7-4.6 2.7-5 5.2-1 26.4 2 25.7-2.5z"/>
  <path fill="#f8eca8" d="M324.5 376.2s-7.8 1.5-11.3 3.2a82.5 82.5 0 0 0-14 10.4l7.2 9.8-3-9.6s6.5-3.6 9.4-5.6l11.7-8.2z"/>
  <use xlink:href="#d" stroke-width="4.1" transform="matrix(.46626 0 0 .4696 225.1 244.5)"/>
  <use xlink:href="#e" stroke-width="3.2" transform="matrix(.46626 0 0 .4696 225.1 244.5)"/>
  <path fill="#d1b948" d="M361.7 456.5s2-.5 2.7 0c2 1.1 5.1 4.1 5.1 4.1s.8-3.6 0-6.5c-.6-1.8-3.5-4.2-3.5-4.2s3.8-1 5.5.3c1.7 1.2 3.8 5.5 3.8 5.5s.8-4.7.2-7.6c-.4-2.3-4.1-5.4-4.1-5.4s3-.6 4.4 0c2.3 1 4.8 5.9 4.8 5.9s2-6.3.5-9.8c-.7-1.7-4.1-3.2-4.1-3.2s4.8-1.3 6.5 0c2.2 1.5 3.2 5.4 3.2 5.4s2.3-4.7 1.5-8.1c-.5-2.1-4-5.2-4-5.2s2.7-2.2 3.5-3.6c.6-1.3 1.5-2.9 1-4.2-.6-1.4-2.4-2-3.9-2.2-1.7-.3-5.1 1.2-5.1 1.2l-2.1-2a21.7 21.7 0 0 1-6.4-13.9c-.6-5.5 3.9-15.9 3.9-15.9s2 6.8 5.2 10.6c2.3 2.6 5.5 4.6 8.8 5.3 4.3 1 6.5 1.2 10.4-.8 3.6-1.8 7.4-4.7 8.3-8.6 3.5-15.2-1-40-.8-38 0 0 2.4-3.2 3.2-5.5.9-2.6 1.6-9 1.6-9a8.3 8.3 0 0 1 4.5-5.2c1.3-.6 3-.5 4.3 0 2.1.9 5 4.9 5 4.9s-.2-5.7-1.8-7.8a10.3 10.3 0 0 0-7.2-3.8c-4.2-.3-8.2 1.4-8.2 1.4s4.5-5 6.6-9.8c1.6-3.8 1.9-11 1.9-11a25 25 0 0 0-6-15.2c-4.5-5.3-12.2-8.8-12.2-8.8s2.8 4.6 4.6 9.2c1.3 3.2 1.7 7.3 1.7 7.3s-2.6-2.7-4.9-4.6c-3.1-2.6-9.4-2.8-9.4-2.8s5.4 4.3 7.2 9.4c.8 2.2.8 4.8.5 7.1-.5 3.8-2.5 9.3-3.4 13-1.2 5-2.7 8.2-2.4 13.4.3 5.4 4 15.5 4 15.5s-6.1.8-8.3 2.3c-3.2 2.2-3.7 8.9-3.7 8.9s3.5-3.6 5.6-4.1c1.7-.4 4.8 1.6 4.8 1.6s-6.2 2.5-8 5.2c-1.6 2.6-1.5 8-1.5 8s2.2-3.3 4.4-4.4c1.7-.9 6 0 6 0s-5.8 3.6-7.2 6.4c-1.4 2.7-.8 8.9-.8 8.9s2.6-4.4 4.7-5.5a7.8 7.8 0 0 1 5.2-.7c1.5.3 2.7.8 3.6 2.1 1.6 2.5 1.3 5.8 0 8.9-1 2.2-1.7 4.2-4 5.2a11.4 11.4 0 0 1-9.1 0c-3.4-1.7-3.7-3.3-5.2-6.8-2.9-6.8-2.5-16-5.2-22.9-2.2-5.7-7.4-9.4-9.2-15.2-1.7-6 .1-12.7-.7-18.9-.6-3.8-2.7-9.8-3.2-13.6-.5-3 0-6.8 0-6.8l-26.8-1.4-14.5 12.8s-5.5 1.5-8.3 1.7c-6.9.4-14.8-1.7-21.7-2l-21.1-.8-2.7-6c-1-2.2-1-5-3.3-6-1.7-.8-4.3-1.3-5.7 0-1.4 1.2-.8 5.5-.8 5.5s-4.4-1-6.3 0c-2 1-3.3 2.4-3.3 4.7 0 2.7 1.4 5.7 3.8 7 1 .5 3.6.5 3.6.5s-2.2 1-2.8 2.7c-.7 2.2 0 5 1.7 6.6 2 1.9 4 1.7 6.6.9 2.1-.8 4.6-3.9 4.6-3.9s4-.5 5.5.6c1.2.8 1.8 2.4 2.2 3.8.3 1 .4 2.3 0 3.3-1.2 2.8-5.8 7-5.8 7s4.5.3 6.5-.4a38 38 0 0 0 10.1-7s-.3 2.6-1.4 4.1c-1.4 1.9-5 4.9-5 4.9s6.8-.7 10-2.3c2.9-1.4 7-6.4 7-6.4s-.2 2.4-.8 3.7l-2.3 5s6.2-1.4 9-3c2-1.3 4.5-5.2 4.5-5.2s.1 2.7-.3 4c-.4 1.4-2.2 4-2.2 4s5.9-1 8.4-2.4c2.6-1.4 6.2-6.3 6.2-6.3s3.4-.8 5.7.4c4.3 2.5 6.3 8.5 11.4 11.2 8.4 4.4 19.5 7 23 16.7 1.2 3.4 1.3 5.7-.4 8.8-2 3.9-10.8 8.5-13 12.8 0 0-3.6 4.8-4.4 9.6a15 15 0 0 0 1.2 9.1c1.6 3.6 4.9 6.3 7.9 8.8 3.6 3 11.9 7.6 11.9 7.6l1.4 2.8s-5.3 3.7-7.2 6.2c-2.4 3.2-6.3 10-6.3 10s-2.5-2.5-5.2-3.5c-2-.7-5-1.5-6.6 0-1.6 1.5-1.7 3.3-.9 5.3.7 1.7 3.2 3.2 3.2 3.2s-2 1.9-2.6 3.2c-.7 1.5-.6 3.5.3 5 1.2 1.7 3.3 1.5 5.5 1.7 1.5 0 4.6-.6 4.6-.6s-.7 1.8-.6 2.9c.2 1.7.6 3.7 2 4.6 2 1.3 5 1 7-.3 3.2-2.2 4.4-10.6 4.4-10.6z"/>
  <path fill="#fee46e" d="M332.3 343.7s1.4-4.3.8-6.3c-.9-2.7-4.3-3.7-5.6-6.2-.4-1-.5-3.1-.5-3.1s-2.7 1.8-4.2 2c-2.3.1-4.4-1.7-6.7-1.9-2 0-5.9 1-5.9 1s-12.8-2.3-18-3c-7.7-.9-22 0-22 0l-3.7-10.3s0-1.6-1-2.3c-.7-.5-2-.7-2.6 0-1.2 1.3 0 5.7 0 5.7s-4.8-1.8-7.3-.6c-1 .5-1.9 1.5-2 2.6 0 1.1 1.1 2.1 2 2.8 2.5 1.7 8.7 2.8 8.7 2.8s-5.3 1.9-6.3 4.1c-.4 1-.7 2.4 0 3.2 1 1 3 .6 4.3.2 2.1-.7 5.2-4 5.2-4s6.3.1 8.6 2c1.6 1.3 2.2 3.6 2.6 5.6.3 1.3 0 2.7 0 4.1l-.2 2.2 11.2-9.1c1.4 3.6.1 7.1-1.5 10.7l10.8-9.5c2.4 3.2 1.1 6.3 0 9.5l9.8-8.7c2.4 3 1.8 5.7 1 8.3 0 0 2.7-1.3 4-2.2 2.3-1.6 6.5-5.7 6.5-5.7s4 1 5.9 2c2.2 1 6 4.1 6 4.1z"/>
  <path fill="#f8eca8" d="M313 331.6a95.2 95.2 0 0 0-37.1-4.2 111 111 0 0 0 37 4.2z"/>
  <path fill="#fee46e" d="M369.1 430.3s-1.7-4.8-3.2-6.8c-4.8-6-14.4-8.3-17.8-15.2-1.2-2.5-1-4.5-.3-7.2 1.2-4.2 4.5-7.5 7.1-11 3-4 8.3-6.8 9.8-11.6a20 20 0 0 0-1.2-13.4c-1.4-3.2-4-5.7-6.8-7.8-5-3.7-12.3-3.5-16.9-7.7-1-1-2-3.6-2-3.6s12.9-3.2 17.4-7.4c1.3-1.2 2-3.6 2-3.6l6.9 2.7s-.5 9.5.9 14c1 3.2 2.4 5.8 4.1 8.6 1.8 3 4.9 5.3 5.6 8.7.8 3.5.7 7.2-.3 10.7-1.3 5-6.4 10.6-7.4 15.8a30 30 0 0 0 0 12.2 43 43 0 0 0 8.3 13.1l3.6 1.8s4.2-1.8 5-.3c1.1 2-4.1 5.7-4.1 5.7l3.5 3.8-12.7 3 5.3 4.8-10.3.3 5.6 7.7h-10.7l5.4 5.7-5 .3s-1.7 7.2-4.2 9.5c-1 .9-2.6 2-3.6 1.2-1-.7 0-2.4 0-3.6V456s-4.3 1-6.5 1.2c-1.5 0-3.6 1-4.4-.3-1-1.7 2.4-5.4 2.4-5.4s-3.2-2.8-3.9-4.8c-.2-.5-.4-1.3 0-1.8 1-.9 2.6-.3 3.9 0 2.9 1 7.7 5.1 7.7 5.1l6.2-11 10.6-8.7zm55.7-91.6s-3-4.9-5.4-6c-2.4-1-3.5-.6-6 .3a9 9 0 0 0-5 4.2c-1.5 3-1.3 6.5-2.1 9.6-1.1 4-6 10.9-6 10.9l-4.2-6.4.5.6-3.8-10.4v-7.4l2.8-11 2.7-10.2v-5.3L396 301l-5.5-6 8.4 1.7 6.2 5.3-2.1-7.6-3.8-8.3 8.6 5.1 7.8 10.6 1.7 9.8L414 323l-4.6 6.5h9.5l5.2 3.6.6 5.5z"/>
  <path fill="#f8eca8" d="M395 295s4.7 3.3 6 5.8c2.1 3.5 3 8 2.8 12 0 2.6-1.3 5-2.1 7.3-1 2.9-2.9 5.5-3.6 8.5-.8 3.4-1.2 7-.8 10.6.2 2.2 1.9 6.4 1.9 6.4-2.2-1-4.4-2.8-6.6-9.4V332l3.6-10.6 2.7-10.2-.4-6.2-4-6.4-3.1-3.4 3.5-.2z"/>
  <use xlink:href="#f" stroke-width="3.2" transform="matrix(.46626 0 0 .4696 225.1 244.5)"/>
  <use xlink:href="#g" stroke-width="4.1" transform="matrix(.46626 0 0 .4696 225.1 244.5)"/>
  <path fill="#f8eca8" d="M341.7 347.4s2 1.8 3 2.5c3.6 2 8.4 1.5 11.7 4l7.3 5.5-10-16.6s-2.8 2-4.4 2.8c-2.4 1-7.6 1.8-7.6 1.8zm20.5 40s-8.2 5.7-10.4 11.3a12.3 12.3 0 0 0 0 9.6c3.2 7.8 15.6 12 15.6 12s-8.8-5.3-11-12.3c-.9-2.7-.5-5.6 0-8.3.8-5 5.8-12.3 5.8-12.3z"/>
  <use xlink:href="#h" stroke-width="4.1" transform="matrix(.46626 0 0 .4696 225.1 244.5)"/>
  <use xlink:href="#i" stroke-width="3.2" transform="matrix(.46626 0 0 .4696 225.1 244.5)"/>
  <path fill="#fff" d="M332.7 287.6c.7-4.5 1.7-5 2.6-6.5v6.4l-2.6.1zm0-13.6c.7 4.6 1.7 5 2.6 6.6v-6.4l-2.6-.1z"/>
  <path fill="#fee46e" d="m317 324.8 4.6-2c1.3-.7.9-3 1.4-4.2.6-1.5 3.2-3.5 3.2-3.5l-6.2-.2s4.5-2.1 4.8-5.2l-.2-4c0-2.6 2.3-4.9 4.5-6.4 1.4-.9 5.2-1.3 6-2.8l1.4-2.6s-2 1.4-3.8 1.6c-1.8.3-4.5-.6-4.5-.6l4-3.8c.6-.6-.5-3.1-.3-4 .4-1.5 3.6-2.2 3.6-2.2s6.6 1.3 9.5-.4c2.8-1.7 4.2-4.9 3.3-7.7l-.7-2c-.7-2.3-9.4.9-11.9 1.2-2.2.3-4.3-.7-5.4-2.6-2.2-3.5-.4-7 0-10.5l13.2-.6c7.2-5.1 31.1-4.7 33.2 1.8.1.6 1.7-1 3.4-.8 2.2.2 4.6 2 4.5 2.5-.2 1.6-1.6 4.4-3 5.8-1.1 1.1-2.3 1-3.2 1.7-1 1-4.6 1.2-4.6 1.2s4.4 2.7 5.6 5c2.3 4-.4 8.5 1.8 12.6a6.6 6.6 0 0 0 2.6 2.3s-2 1.8-3.9 1.3l-3.6-1s3.4 4 3.6 7.5c.3 4-4.2 7.1-4.6 11.1a27 27 0 0 0 1.8 8.3s-2.6-.8-3.8-1.8c-1.1-.8-3.1-3.3-3.1-3.3l1 5.7c.5 2.7-5 4.5-5.4 7.7-.3 2.1 1.5 4.4 1.5 4.4s-5-1.1-7-2.6c-1.5-1.1-3.5-4.6-3.5-4.6s-1.8 4.8-3.4 6.4c-1.7 2-5.3 2.9-8.3 4.3-5 2.3-9.4 4.6-9.4 4.6s.9-3.4.5-5.2c-.6-2.9-4.5-6-5.9-8.6-1.4-2.6 0-6.2 0-6.2s-3.3 3.2-5.7 3.6c-2.6.6-7.6-1.2-7.6-1.2z"/>
  <path fill="#fff" d="M346.2 264.9c0 1.9 2.3 4 5.1 3.9 2.9-.1 4.6-1.7 4.6-3.7s-1.9-3-4.8-2.9c-2.8.1-5 .7-5 2.7z"/>
  <path fill="#2b2200" d="M348.9 265.2a2 2 0 0 0 1 1.6 2 2 0 0 0 2 0 2 2 0 0 0-2-3.4c-.7.4-1 1-1 1.8z"/>
  <use xlink:href="#j" font-family="Bitstream Vera Sans" font-weight="400" overflow="visible" style="text-indent:0;text-align:start;line-height:normal;text-transform:none;block-progression:tb;marker:none;-inkscape-font-specification:Bitstream Vera Sans" transform="matrix(.46626 0 0 .4696 225.1 244.5)"/>
  <path fill="#d1b948" d="M373.8 274.5s4.4 2.7 5.6 5c2.3 4-.4 8.5 1.8 12.6a6.6 6.6 0 0 0 2.6 2.3s-2 1.8-3.9 1.3l-3.6-1s3.4 4 3.6 7.5c.3 4-4.2 7.1-4.6 11.1a27 27 0 0 0 1.8 8.3s-2.6-.8-3.8-1.8c-1.1-.8-3.1-3.3-3.1-3.3l1 5.6c.5 2.8-5 4.6-5.4 7.8-.3 2.1 1.5 4.4 1.5 4.4s-5-1.1-7-2.6c-1.5-1.1-3.5-4.6-3.5-4.6s-1.8 4.8-3.4 6.4c-1.7 2-5.3 2.9-8.3 4.3-5 2.3-9.4 4.6-9.4 4.6s.9-3.4.5-5.2c-.6-2.9-4.5-6-5.9-8.6-1.4-2.6 0-6.2 0-6.2s-3.3 3.1-5.7 3.6c-2.6.6-7.6-1.2-7.6-1.2l4.6-2c1.3-.7.9-3 1.4-4.2.6-1.5 3.2-3.5 3.2-3.5l-6.2-.2s4.5-2.1 4.8-5.2l-.2-4c0-2.6 2.3-4.9 4.5-6.4 1.4-.9 5.2-1.3 6-2.8l1.4-2.6s.8 1.8.7 3.3c0 1.4-.3 3.1-1.4 4.2-1.3 1.2-7.2 2.3-7.1 4.2 0 2.4 0 3.2-.7 5.6l5.5-2s-4.4 6.2-5.8 9.2c-.4.8-.4 2.8-.4 2.8s3-3.2 5-4.2c1.3-.8 10.5-10.3 10.5-10.3s-8.7 15.3-7.9 18.4c.7 2.9 3.7 4.7 4.6 7.5.3 1 .3 3 .3 3s7.4-3 10-5.6c3.3-3.5 5.3-21 5.3-21s3.2 14.4 5.3 17c.6.9 2 2.2 2 2.2s2.8-4.2 3.5-6.8c1.4-4.9-3.9-26.1-3.9-26.1l9.7 17s-.1-4.3.7-6.3c.8-1.8 1.6-2.5 1.9-4.4.6-4.3-6.7-17.7-6.7-17.7l10.4 7.7s-.6-6.6-1.4-9.8a64 64 0 0 0-2.8-7.3z"/>
  <path fill="#d1b948" d="M332.2 288.2s2.2 1.8 3.5 2c2 .4 4-1.1 6-1.3 3-.4 6.2.7 9.2 0 2.7-.7 5.7-1.7 7.5-3.8 2.3-3 2.8-11 2.8-11l1.2 1.2.4 5.6-1.2 6.1-4.5 4-5.3 1.8-6.6-.6H341l-3.8 2-4.4 1.7-4.1-1.3 3.5-3.4v-3z"/>
  <use xlink:href="#k" font-family="Bitstream Vera Sans" font-weight="400" overflow="visible" style="text-indent:0;text-align:start;line-height:normal;text-transform:none;block-progression:tb;marker:none;-inkscape-font-specification:Bitstream Vera Sans" transform="matrix(.46626 0 0 .4696 225.1 244.5)"/>
  <path fill="#d1b948" d="m330 262.8-.6 4.8s4-.3 5.5-1c2.3-1 3.5-4.3 3.5-4.3l-8.3.5z"/>
  <path fill="#f8eca8" d="m346.6 259.8 4.2-1.4 4-1 8.4 1 8.8 1.3 7-3c-3 0-.8-.1-.8 1.2 0 1-2 4-4.9 4.7-3.3.8-11.3-1.5-18.6-1.5-4.7 0-9.1 1.4-11.7 1.6l3.6-3z"/>
  <use xlink:href="#l" stroke-width="3.2" transform="matrix(.46626 0 0 .4696 225.1 244.5)"/>
  <path fill="#806600" d="M370.7 271.2c2.9-5.2 6.2-5.7 11.6-5-1.8 4-4.3 8.2-11.6 5z"/>
  <path fill="#f8eca8" d="M352.4 300.2s-10.6 11.5-10.6 18c0 2 2.1 3.7 2.4 5.8.2 2.4-1.2 7-1.2 7s4.6-4.7 4.8-7.4c.1-2.4-1.8-4.5-1.8-6.9a44.1 44.1 0 0 1 6.4-16.5zm-16.4 9.5s4-2 4.8-3.4c.7-1.4.5-4 1.4-5.3 1.8-2.6 6-4.4 6-4.4s-5.7.3-7.8 3.2c-.9 1.2-.7 3.5-1 4.9-.4 1.6-3.4 5-3.4 5zm26.6 11.5s-3-3.5-3-5c-.1-1.6 1-4 .8-5.4-.6-3.2-3.7-6.5-3.7-6.5s5 2.5 5.8 6.1c.3 1.4-.7 3.4-1 4.8-.3 1.7 1 6 1 6zm9-15.2s-3.4-3-3.7-4.6c-.4-1.5.5-4 0-5.4-1-3-4.7-5.9-4.7-5.9s5.4 1.8 6.7 5.2c.5 1.3-.2 3.5-.3 5 0 1.6 2 5.7 2 5.7z"/>
  <use xlink:href="#m" stroke-width="3.1" transform="matrix(.48538 0 0 .48887 220.6 239.7)"/>
  <path fill="#806600" fill-rule="evenodd" d="M377.3 263.3c-4.8 1.2-4.4 3-6.9 4.6 2.8-.2 3.7-2.4 7.2-3.2l-.3-1.4z"/>
  <path fill="#2b96f6" fill-rule="evenodd" d="M239-1.8v40.1l1.6 2.7 78 32.5-39-65-24.8-10.3H239zm40.6 10.3 78 32.5-25.7-42.8h-58.5l6.2 10.3zm78 32.5 39 65 70.6 29.5.6-8.2-32.2-53.8-78-32.5zm78 32.5 35.3 14.8 3.7-47.2-78-32.6 39 65zm-39-65-6.2-10.3h-18.6l24.7 10.3zm78 32.5 3.3-42.8h-29L474.6 41zm-78 65-78-32.5 39 65 78 32.6-39-65zm39 65 25.5 42.6 2.4-31-28-11.5zm-78-32.5-78-32.5 39 65 78 32.5-39-65zm39 65 20.1 33.7h42.5l.6-7.3-63.3-26.4zm-78-32.4-78-32.6 39 65 78 32.6-39-65zm39 65 .6 1h2l-2.6-1zm-78-32.6L239 186.6v46.7l1.6 2.8 2.6 1h56.6l-20.2-33.6zm-39 32.6-1.6-.7v1.8h2.3l-.7-1.1zm0-97.6-1.6-2.7v2l1.6.7zm39-32.5-39-65-1.6-.7v48.8l40.6 17z"/>
  <path fill="none" stroke="#806600" stroke-width="2" d="M239-1.8v495.9M20 237.2h439"/>
  <path fill="#a00" stroke="#806600" stroke-miterlimit="3.9" stroke-width="3" d="M162 274.8c5.4 43.5 27.2 64.6 78 64.6s72.6-21 78-64.6l9.1-116.2H152.9l9 116.2z"/>
  <g transform="translate(-588.7 -114.6) scale(2.34769)">
    <path fill="#f8eca8" d="M350 131h2.8v7.5H350z"/>
    <g stroke-width="2.3">
      <use xlink:href="#n" fill-rule="evenodd" overflow="visible" style="marker:none" transform="matrix(.14804 0 0 .14491 -32.8 26.7)"/>
      <path fill="#ccc" fill-rule="evenodd" d="m364 141.3.4.3.5.4h1l.6-.5.2-.4.2-.5v-.6l-.2-.4-.4-.3-.4-.2.2.6a1.3 1.3 0 0 1-.2 1c0 .2-.3.4-.5.5l-.7.1h-.6z"/>
      <use xlink:href="#o" fill-rule="evenodd" overflow="visible" style="marker:none" transform="matrix(.24568 0 0 .23528 -295.3 -43.3)"/>
      <use xlink:href="#p" stroke-width="1.4" overflow="visible" style="marker:none" transform="matrix(.14804 0 0 .14491 -32.8 26.7)"/>
    </g>
    <g stroke-width="2.3">
      <use xlink:href="#n" fill-rule="evenodd" overflow="visible" style="marker:none" transform="matrix(.14804 0 0 .14491 -58.5 26.6)"/>
      <path fill="#ccc" fill-rule="evenodd" d="m338.3 141.1.3.4.6.3h1l.6-.4.2-.4.2-.6v-.6l-.3-.3-.3-.4-.5-.2.3.6a1.3 1.3 0 0 1-.2 1.1l-.6.5-.6.1h-.7z"/>
      <use xlink:href="#o" fill-rule="evenodd" overflow="visible" style="marker:none" transform="matrix(.24568 0 0 .23528 -321 -43.5)"/>
      <use xlink:href="#p" stroke-width="1.4" overflow="visible" style="marker:none" transform="matrix(.14804 0 0 .14491 -58.5 26.6)"/>
    </g>
    <path fill="#f8eca8" d="M349 142.5h4.5V153H349z"/>
    <path fill="#d1b948" d="M354 138h9.5v5H354z"/>
    <path fill="#f6e078" d="M352.5 131h2.5v8h-2.5zm0 12h3.5v10h-3.5z"/>
    <rect width="9" height="5" x="341.5" y="138" fill="#f8eca8" rx="0" ry="0"/>
    <path fill="none" stroke="#806600" stroke-linejoin="round" stroke-width=".3" d="M349 152.5h7V144c0-.5.5-1 1-1h6.5v-5h-7c-.5 0-1.5-.5-1.5-1v-6h-5v6c0 .5-1 1-1.5 1h-7v5h6.5c.5 0 1 .4 1 1v8.5z"/>
    <path fill="#1353b4" fill-rule="evenodd" d="M349 143h7v-5h-7v5z"/>
    <path fill="#cd0707" stroke="#820402" stroke-width=".4" d="M350.6 184.2c-.5 1.1-1.5 1.5-2.6 1.1-.6-.2-1-.7-1.1-1.7 1.5-1.5 1.9-2.2 1.8-4.5 2.4 2.8 1.6 4.1 2 5z"/>
    <path fill="#d1b948" d="M371 171a18 18 0 1 1-36 0 18 18 0 0 1 36 0z"/>
    <path fill="none" stroke="#806600" stroke-linecap="round" stroke-linejoin="round" stroke-width=".6" d="M366.7 171.7c0 10.2-8 18.5-18 18.5s-18.1-8.3-18.1-18.5 8-18.5 18-18.5 18.1 8.3 18.1 18.5h0z" transform="matrix(.9965 0 0 .97108 5.6 4.3)"/>
    <path fill="#e7cd54" d="M366 169.6c0 8.5-6.8 15.4-15 15.4s-15-7-15-15.4c0-8.6 6.8-15.5 15-15.5s15 7 15 15.5z"/>
    <rect width="38" height="4" x="334" y="164" fill="#d1b948" rx=".8" ry=".8"/>
    <path fill="#f6e078" d="M362 168.5c0 6.9-5.8 12.4-12.8 12.4-7.1 0-12.9-5.5-12.9-12.4s5.8-12.5 12.9-12.5c6.5 0 7.8 5.5 8.1 11.6 0 .8 4.7.3 4.7.9z"/>
    <path fill="#f8eca8" d="M358.9 167.4c0 5.8-4.9 10.4-10.9 10.4s-10.8-4.6-10.8-10.4c0-5.7 4.8-10.4 10.8-10.4 6 0 10.9 4.7 10.9 10.4z"/>
    <path fill="#e7cd54" d="M337 164c-1 0-1.3 3-1.3 4h30.1a11 11 0 0 0-.9-4H337z"/>
    <path fill="#f6e078" d="M337.2 164a12 12 0 0 0-.9 4h22.2c0-1.4.5-2.8 0-4h-21.3z"/>
    <path fill="#f8eca8" d="M337.8 164a10 10 0 0 0-.6 3.4v.6h21.6v-.6a10 10 0 0 0-.5-3.4h-20.5z"/>
    <rect width="38" height="4" x="334" y="174" fill="#d1b948" rx=".8" ry=".8"/>
    <rect width="11.1" height="4" x="347" y="169" fill="#f6e078" stroke="#806600" stroke-linecap="round" stroke-linejoin="round" stroke-width=".3" rx=".8" ry=".8"/>
    <rect width="4.7" height="4" x="341" y="169" fill="#f6e078" stroke="#806600" stroke-linecap="round" stroke-linejoin="round" stroke-width=".3" rx=".7" ry=".8"/>
    <rect width="4.7" height="4" x="359.3" y="169" fill="#f6e078" stroke="#806600" stroke-linecap="round" stroke-linejoin="round" stroke-width=".3" rx=".7" ry=".8"/>
    <rect width="3.9" height="4" x="336.1" y="169" fill="#f6e078" stroke="#806600" stroke-linecap="round" stroke-linejoin="round" stroke-width=".3" rx=".7" ry=".8"/>
    <rect width="3.9" height="4" x="366" y="169" fill="#f6e078" stroke="#806600" stroke-linecap="round" stroke-linejoin="round" stroke-width=".3" rx=".7" ry=".8"/>
    <rect width="9" height="2.7" x="348" y="169.6" fill="#bc0028" rx=".6" ry=".4"/>
    <path fill="#e90031" d="M351.7 169.8c1 .3 1.3 1 .6 1.6-.8.5-2.3.6-3.3.3-1-.4-1.3-1.1-.6-1.7.8-.5 2.3-.6 3.3-.2l-1.3 1 1.3-1z"/>
    <rect width="9" height="2.7" x="348" y="169.6" fill="none" stroke="#a80" stroke-linecap="round" stroke-linejoin="round" stroke-width=".1" rx=".6" ry=".4"/>
    <path fill="#ff96ad" d="M350 170.2c.2.2 0 .5-.4.6-.4 0-.9 0-1-.3-.2-.2 0-.5.4-.6.4 0 1 0 1 .3l-.4.4.5-.4z"/>
    <path fill="#e7cd54" d="M336.7 174c.4 1.4 1 2.8 1.8 4h25c.8-1.2 1.4-2.6 1.8-4h-28.6z"/>
    <path fill="#f6e078" d="M337.7 174c.7 1.5 1.8 3 3.2 4h16.5c1.3-1.1 2.5-2.5 3.3-4h-23z"/>
    <path fill="#f8eca8" d="M339.6 174c2 2.3 5 3.8 8.4 3.8a11 11 0 0 0 8.5-3.8h-17z"/>
    <rect width="3.1" height="2.7" x="341.8" y="169.6" fill="#306947" rx=".6" ry=".4"/>
    <path fill="#36a464" d="M343.6 169.7c.5.3.6 1 .2 1.4-.3.4-1 .5-1.6.2-.5-.3-.6-1-.2-1.3.3-.5 1-.6 1.6-.3l-.7.8.7-.8z"/>
    <rect width="3.2" height="2.7" x="341.8" y="169.6" fill="none" stroke="#a80" stroke-linecap="round" stroke-linejoin="round" stroke-width=".1" rx=".6" ry=".4"/>
    <rect width="2.4" height="2.7" x="336.8" y="169.6" fill="#1a60fa" rx=".6" ry=".4"/>
    <path fill="#5183fb" d="M338 169.7c.4.3.5.9.2 1.2-.2.4-.7.5-1 .2a1 1 0 0 1-.2-1.2c.2-.4.7-.5 1-.2l-.4.7.4-.7z"/>
    <rect width="2.5" height="2.7" x="336.8" y="169.6" fill="none" stroke="#a80" stroke-linecap="round" stroke-linejoin="round" stroke-width=".1" rx=".6" ry=".4"/>
    <path fill="#abe8c4" d="M343.1 170.2c.2.2 0 .4-.3.5-.3 0-.7 0-.8-.2-.1-.2 0-.5.4-.5.3-.1.6 0 .7.2l-.3.3.3-.3z"/>
    <path fill="#acc4fd" d="M337.8 170.2c0 .2 0 .5-.2.6-.2 0-.4 0-.4-.3-.1-.2 0-.5.2-.6.1 0 .3 0 .4.3l-.2.4.2-.4z"/>
    <rect width="3.1" height="2.7" x="360.1" y="169.6" fill="#306947" rx=".6" ry=".4"/>
    <path fill="#36a464" d="M361.5 170c.4.2.5.7.2 1a1 1 0 0 1-1.2.2c-.4-.2-.5-.7-.3-1a1 1 0 0 1 1.3-.3l-.5.7.5-.7z"/>
    <path fill="#abe8c4" d="M360.8 170.2c0 .2 0 .4-.2.5-.2 0-.4 0-.5-.2 0-.2 0-.5.2-.5.2-.1.4 0 .5.2l-.2.3.2-.3z"/>
    <rect width="3.1" height="2.7" x="360.1" y="169.6" fill="none" stroke="#a80" stroke-linecap="round" stroke-linejoin="round" stroke-width=".1" rx=".6" ry=".4"/>
    <rect width="2.4" height="2.7" x="366.8" y="169.6" fill="#1a60fa" rx=".6" ry=".4"/>
    <path fill="#5183fb" d="M367.6 170c.2.3.2.8 0 1.1 0 .4-.4.5-.6.2-.2-.2-.3-.7-.1-1 .1-.4.4-.5.7-.3l-.3.7.3-.7z"/>
    <path fill="#acc4fd" d="M367.3 170.2c0 .2 0 .5-.2.6 0 0-.2 0-.3-.3 0-.2 0-.5.2-.6 0 0 .2 0 .3.3l-.2.4.2-.4z"/>
    <rect width="2.3" height="2.7" x="366.8" y="169.6" fill="none" stroke="#a80" stroke-linecap="round" stroke-linejoin="round" stroke-width=".1" rx=".6" ry=".4"/>
    <rect width="38" height="4" x="334" y="164" fill="none" stroke="#806600" stroke-linecap="round" stroke-linejoin="round" stroke-width=".4" rx=".8" ry=".8"/>
    <path fill="#f8eca8" fill-rule="evenodd" d="m347.7 165.3-2 2.1c-.6-.6-.6-1.2-.6-1.9V154c0-.6-.3-1.5.1-1.5l2.6 2.5c-.3.3-.5.4-.6.7v8.3c0 .5 0 1 .5 1.4z"/>
    <path fill="#d1b948" fill-rule="evenodd" d="m357.4 165.3 2.3 2.3c.4-.4.3-1.4.3-2v-11.7c0-.6.1-1.5-.3-1.5l-2.2 1.7c.3.2.5 1.2.5 1.5v8.3c0 .5 0 1-.6 1.4z"/>
    <rect width="10.9" height="11.9" x="347.1" y="154.1" fill="#d1b948" rx=".8" ry=".8"/>
    <path fill="#f6e078" fill-rule="evenodd" d="m345.2 152.4 2.5 2.3 1-.5h7.9l.8.5 2-2c.3-.8-.8-1-1.4-.7h-11c-1 0-1.7.1-1.8.4z"/>
    <path fill="none" stroke="#806600" stroke-width=".4" d="m347.4 154.5-2.2-2.1m12.6 1.9 1.9-2"/>
    <path fill="#d1b948" fill-rule="evenodd" d="m345.2 167.6 2.2-2 1.6.3h7.9l.9-.5 2 2c0 .2-1 .8-1.4.7h-11c-1-.2-2.1-.2-2.2-.5z"/>
    <path fill="#f8eca8" fill-rule="evenodd" d="m347.1 155.8-.1 8.7.8.8 8.2-11.1h-7.6c-1 0-1.2.3-1.3 1.6z"/>
    <path fill="none" stroke="#806600" stroke-width=".4" d="m357.7 165.7 2 2"/>
    <rect width="38" height="4" x="334" y="174" fill="none" stroke="#806600" stroke-linecap="round" stroke-linejoin="round" stroke-width=".4" rx=".8" ry=".8"/>
    <path fill="#f6e078" fill-rule="evenodd" d="m347 164.5 9-10.5c1.4-.5 2.8.9 2 3l-9 9c-1 .4-2.5-.7-2-1.5z"/>
    <rect width="10.9" height="11.9" x="347.1" y="154.1" fill="none" stroke="#806600" stroke-linecap="round" stroke-linejoin="round" stroke-width=".4" rx=".8" ry=".8"/>
    <path fill="none" stroke="#806600" stroke-width=".4" d="m347.3 165.6-2 2"/>
    <path fill="#1353b4" fill-rule="evenodd" d="M351 156h3v3h2v2h-2v3h-3v-3h-2v-2h2v-3z"/>
    <path fill="#2d6afa" fill-rule="evenodd" d="M352 160h1l1-1v-3h-3v3l1 1z"/>
    <path fill="#5183fb" fill-rule="evenodd" d="M349 161h2l.5-.5v-1l-.5-.5h-2v2z"/>
    <path fill="none" stroke="#afc6e9" stroke-width=".1" d="m351 161 1-1h1l1-1m0 2-1-1"/>
    <path fill="none" stroke="#d7e3f4" stroke-width=".1" d="m351 159 .5.5"/>
    <path fill="#135ecb" stroke="#afc6e9" stroke-linecap="round" stroke-linejoin="round" stroke-width=".1" d="m351.5 159.5.5-.5h1l.5.5v1l-.5.5h-1l-.5-.5v-1z"/>
    <path fill="none" stroke="#bfa021" stroke-linejoin="round" stroke-width=".2" d="M351 156h3v3h2v2h-2v3h-3v-3h-2v-2h2v-3z"/>
    <rect width="4" height="2" x="350.5" y="139.5" fill="#135ecb" ry="0"/>
    <path fill="#5183fb" fill-rule="evenodd" d="m349 143 1.5-1.5v-2L349 138v5z"/>
    <path fill="#2d6afa" fill-rule="evenodd" d="M350.5 139.5 349 138h7l-1.5 1.5h-4z"/>
    <path fill="none" stroke="#afc6e9" stroke-width=".1" d="M354.5 139.5v2h-4m4 0 1.5 1.5"/>
    <rect width="15" height="16" x="345" y="152" fill="none" stroke="#806600" stroke-linecap="round" stroke-linejoin="round" stroke-width=".4" rx=".8" ry=".8"/>
    <path fill="none" stroke="#806600" stroke-linejoin="round" stroke-width=".4" d="M356 152v-8c0-1 .3-1 1-1h6.5v-5h-7c-1 0-1.5 0-1.5-1v-6h-5v6c0 1 0 1-1.5 1h-7v5h7.6l-.1 9"/>
    <path fill="none" stroke="#d7e3f4" stroke-width=".1" d="M350.5 139.5 349 138"/>
    <rect width="4.5" height="2.5" x="-131" y="351.5" fill="#bc0028" rx=".3" ry=".4" transform="rotate(-90)"/>
    <g stroke-width="2.3">
      <use xlink:href="#n" fill-rule="evenodd" overflow="visible" style="marker:none" transform="matrix(.14804 0 0 .14491 -50.7 30.7)"/>
      <path fill="#ccc" fill-rule="evenodd" d="m346.1 145.3.3.4.6.3h1l.6-.5.2-.3.2-.6v-.6l-.3-.3-.3-.4-.5-.2.3.6a1.3 1.3 0 0 1-.2 1.1l-.5.4-.7.2-.7-.1z"/>
      <use xlink:href="#o" fill-rule="evenodd" overflow="visible" style="marker:none" transform="matrix(.24568 0 0 .23528 -313.2 -39.3)"/>
      <use xlink:href="#p" stroke-width="1.4" overflow="visible" style="marker:none" transform="matrix(.14804 0 0 .14491 -50.7 30.7)"/>
    </g>
    <g stroke-width="2.3">
      <use xlink:href="#n" fill-rule="evenodd" overflow="visible" style="marker:none" transform="matrix(.14804 0 0 .14491 -49.7 22.6)"/>
      <path fill="#ccc" fill-rule="evenodd" d="m347.2 137.2.3.4.6.3h1l.5-.5.3-.3.1-.6v-.6l-.2-.3-.4-.4-.4-.2.3.6a1.3 1.3 0 0 1-.2 1.1l-.6.4-.7.2h-.6z"/>
      <use xlink:href="#o" fill-rule="evenodd" overflow="visible" style="marker:none" transform="matrix(.24568 0 0 .23528 -312.2 -47.4)"/>
      <use xlink:href="#p" stroke-width="1.4" overflow="visible" style="marker:none" transform="matrix(.14804 0 0 .14491 -49.7 22.6)"/>
    </g>
    <g stroke-width="2.3">
      <use xlink:href="#n" fill-rule="evenodd" overflow="visible" style="marker:none" transform="matrix(.14804 0 0 .14491 -41.7 22.7)"/>
      <path fill="#ccc" fill-rule="evenodd" d="m355.2 137.3.3.3.6.3h1l.5-.4.3-.4.1-.5v-.6l-.2-.4-.4-.4-.4-.1.3.5a1.3 1.3 0 0 1-.2 1.2l-.6.4-.7.1h-.6z"/>
      <use xlink:href="#o" fill-rule="evenodd" overflow="visible" style="marker:none" transform="matrix(.24568 0 0 .23528 -304.2 -47.3)"/>
      <use xlink:href="#p" stroke-width="1.4" overflow="visible" style="marker:none" transform="matrix(.14804 0 0 .14491 -41.7 22.7)"/>
    </g>
    <g stroke-width="2.3">
      <use xlink:href="#n" fill-rule="evenodd" overflow="visible" style="marker:none" transform="matrix(.14804 0 0 .14491 -40.8 30.7)"/>
      <path fill="#ccc" fill-rule="evenodd" d="m356 145.3.4.3.5.4h1l.6-.5.2-.4.2-.5v-.6l-.2-.4-.4-.3-.4-.2.2.6a1.3 1.3 0 0 1-.2 1c0 .2-.3.4-.5.5l-.7.1h-.6z"/>
      <use xlink:href="#o" fill-rule="evenodd" overflow="visible" style="marker:none" transform="matrix(.24568 0 0 .23528 -303.3 -39.3)"/>
      <use xlink:href="#p" stroke-width="1.4" overflow="visible" style="marker:none" transform="matrix(.14804 0 0 .14491 -40.8 30.7)"/>
    </g>
    <g stroke-width="2.3">
      <use xlink:href="#n" fill-rule="evenodd" overflow="visible" style="marker:none" transform="matrix(.10355 0 0 .10002 74.2 46.8)"/>
      <path fill="#ccc" fill-rule="evenodd" d="m351.8 125.9.2.2.4.2h.7l.4-.3.2-.2v-1.1l-.3-.2-.3-.2.2.4a.9.9 0 0 1-.2.8c0 .1-.2.3-.4.3l-.5.1h-.4z"/>
      <use xlink:href="#o" fill-rule="evenodd" overflow="visible" style="marker:none" transform="matrix(.17186 0 0 .1624 -109.4 -1.6)"/>
      <use xlink:href="#p" stroke-width="2.1" overflow="visible" style="marker:none" transform="matrix(.10355 0 0 .10002 74.2 46.8)"/>
    </g>
    <rect width="3.7" height="1.5" x="-124.2" y="352" fill="#bc0028" rx=".3" ry=".2" transform="rotate(-90)"/>
    <rect width="4.5" height="2.5" x="-131" y="351.5" fill="none" stroke="#806600" stroke-linecap="round" stroke-linejoin="round" stroke-width=".2" rx=".3" ry=".4" transform="rotate(-90)"/>
    <path fill="#e90031" d="M351.8 127.3c.3-.5.9-.7 1.3-.3.4.4.5 1 .2 1.6-.3.5-.8.7-1.2.3-.5-.4-.6-1-.3-1.6"/>
    <path fill="#ff96ad" d="M352 127.4c.3-.2.5 0 .6.3 0 .3 0 .7-.2.8-.3.1-.5 0-.6-.4 0-.3 0-.6.3-.7l.3.3-.3-.3z"/>
    <rect width="3.7" height="1.5" x="-124.3" y="352" fill="none" stroke="#806600" stroke-linecap="round" stroke-linejoin="round" stroke-width=".2" rx=".3" ry=".2" transform="rotate(-90)"/>
    <path fill="#e90031" d="M352.3 121.2c.1-.4.4-.5.6-.2.2.2.3.7.1 1-.1.4-.4.4-.6.2-.2-.2-.3-.7-.1-1"/>
    <path fill="#ff96ad" d="M352.3 121.3c.1 0 .3 0 .3.2l-.1.4c-.1.1-.3 0-.3-.2l.1-.4.2.2-.2-.2z"/>
    <g transform="rotate(90 366.6 142)">
      <rect width="3.7" height="1.5" x="-141.7" y="364.3" fill="#306947" rx=".3" ry=".2" transform="rotate(-90)"/>
      <rect width="3.7" height="1.5" x="-141.7" y="364.3" fill="none" stroke="#806600" stroke-linecap="round" stroke-linejoin="round" stroke-width=".2" rx=".3" ry=".2" transform="rotate(-90)"/>
      <path fill="#36a464" d="M364.5 140.4c.2-.4.5-.4.7-.2.2.2.3.7.1 1-.1.4-.4.5-.6.2-.3-.2-.3-.7-.2-1"/>
      <path fill="#abe8c4" d="M364.6 140.7c.1 0 .2 0 .3.2l-.1.5c-.1 0-.3 0-.3-.2l.1-.5.2.2-.2-.2z"/>
    </g>
    <g transform="rotate(90 350.3 125.7)">
      <rect width="3.7" height="1.5" x="-141.7" y="364.3" fill="#306947" rx=".3" ry=".2" transform="rotate(-90)"/>
      <path fill="#36a464" d="M364.5 140c.2-.4.5-.5.7-.2.2.3.3 1 .1 1.4-.1.4-.4.5-.6.2-.3-.3-.3-1-.2-1.4"/>
      <path fill="#abe8c4" d="M364.6 140.5c.1-.1.2 0 .3.2l-.1.7c-.1.1-.3 0-.3-.3l.1-.6.2.2-.2-.2z"/>
      <rect width="3.7" height="1.5" x="-141.7" y="364.3" fill="none" stroke="#806600" stroke-linecap="round" stroke-linejoin="round" stroke-width=".2" rx=".3" ry=".2" transform="rotate(-90)"/>
    </g>
    <path fill="none" stroke="#bfa021" stroke-linejoin="round" stroke-width=".3" d="M349 143h7v-5h-7v5z"/>
    <path fill="none" stroke="#afc6e9" stroke-width=".1" d="m356 138-1.5 1.5h-4v2L349 143"/>
  </g>
</svg>
